<?xml version="1.0" standalone="no"?><!DOCTYPE svg PUBLIC "-//W3C//DTD SVG 1.1//EN" "http://www.w3.org/Graphics/SVG/1.1/DTD/svg11.dtd"><svg t="1688528546660" class="icon" viewBox="0 0 1024 1024" version="1.1" xmlns="http://www.w3.org/2000/svg" p-id="1584" width="16" height="16" xmlns:xlink="http://www.w3.org/1999/xlink"><path d="M187.904 232.8576a51.2 51.2 0 0 1 69.888 19.0976l67.7888 118.5792A476.3648 476.3648 0 0 1 512 332.8c59.5456 0 116.5312 10.9056 169.1136 30.7712l63.7952-111.616a51.2 51.2 0 0 1 88.8832 50.7904l-61.2864 107.2128a477.7984 477.7984 0 0 1 215.04 352.9728A51.2 51.2 0 0 1 936.5504 819.2H87.4496a51.2 51.2 0 0 1-50.944-56.2688 477.5936 477.5936 0 0 1 199.6288-342.528L168.8576 302.7456a51.2 51.2 0 0 1 19.0976-69.888z m132.096 428.4928a42.6496 42.6496 0 1 0 0-85.3504 42.6496 42.6496 0 0 0 0 85.3504z m426.6496-42.7008a42.6496 42.6496 0 1 0-85.2992 0 42.6496 42.6496 0 0 0 85.2992 0z" fill="#A4C639" p-id="1585"></path></svg>